<?xml version="1.0" standalone="no"?><!DOCTYPE svg PUBLIC "-//W3C//DTD SVG 1.1//EN" "http://www.w3.org/Graphics/SVG/1.1/DTD/svg11.dtd"><svg t="1656057109581" class="icon" viewBox="0 0 1024 1024" version="1.1" xmlns="http://www.w3.org/2000/svg" p-id="2369" width="32" height="32" xmlns:xlink="http://www.w3.org/1999/xlink"><defs><style type="text/css"></style></defs><path d="M659.592533 136.533333H364.373333a68.266667 68.266667 0 0 0-61.371733 38.365867l-50.619733 103.970133-122.4704 53.1456A102.4 102.4 0 0 0 68.266667 425.949867v399.3088a68.266667 68.266667 0 0 0 68.266666 68.266666l750.933334 0.017067a68.266667 68.266667 0 0 0 68.266666-68.266667V425.949867a102.4 102.4 0 0 0-61.6448-93.934934L771.584 278.869333l-50.602667-103.953066A68.266667 68.266667 0 0 0 659.592533 136.533333zM313.7536 308.753067L364.373333 204.8h295.2192l50.619734 103.936a68.266667 68.266667 0 0 0 34.2016 32.768l122.504533 53.128533A34.133333 34.133333 0 0 1 887.466667 425.949867v399.325866l-750.933334-0.017066V425.949867a34.133333 34.133333 0 0 1 20.548267-31.317334l122.4704-53.1456a68.266667 68.266667 0 0 0 34.2016-32.733866z" fill="#444444" p-id="2370"></path><path d="M512 378.504533c-94.2592 0-170.666667 76.407467-170.666667 170.666667s76.407467 170.666667 170.666667 170.666667 170.666667-76.407467 170.666667-170.666667-76.407467-170.666667-170.666667-170.666667z m0 68.266667a102.4 102.4 0 1 1 0 204.8 102.4 102.4 0 0 1 0-204.8z" fill="#00B386" p-id="2371"></path></svg>