<?xml version="1.0" standalone="no"?><!DOCTYPE svg PUBLIC "-//W3C//DTD SVG 1.1//EN" "http://www.w3.org/Graphics/SVG/1.1/DTD/svg11.dtd"><svg t="1666840027257" class="icon" viewBox="0 0 1024 1024" version="1.1" xmlns="http://www.w3.org/2000/svg" p-id="14157" width="24" height="24" xmlns:xlink="http://www.w3.org/1999/xlink"><path d="M514 114.3c-220 0-398.8 178.9-398.8 398.8S294 912 514 912s398.8-178.9 398.8-398.8S734 114.3 514 114.3z m0 755c-196.4 0-356.1-159.8-356.1-356.1S317.6 157.1 514 157.1s356.1 159.8 356.1 356.1S710.4 869.3 514 869.3z" p-id="14158"></path><path d="M613.8 693.1c-0.5 0-0.5 0-0.5 0.5-5.9 19.2-17.6 44.8-25.1 44.8-10.7 0-12.8-49.7 19.2-234.9 12.3-71-35.2-117.5-87-117.5-43.8 0-91.3 33.1-109.5 112.7 3.7-5.9 15.5-24.6 26.2-24.6 15.5 0 27.8 41.6 3.2 230.1-11.2 84.4 28.3 131.3 72.6 131.3 42.7 0 90.2-43.8 102-141 0-0.8-0.5-1.4-1.1-1.4z m-48.5-196.8c-38.8 224.5-28.1 249.3-14.6 265.9-12.6 21.7-27.5 30.7-37.8 30.7-6.2 0-12-2.9-17-8.8-6-6.9-19.4-27.9-13.2-74.4 25.6-196.1 12.3-237.3-4.7-258.2 13.4-16.2 28.9-22.8 42.5-22.8 13.1 0 25.6 5.8 34.2 16 10.5 12.9 14.3 30.6 10.6 51.6zM546 201.9c-45.9 0-83.3 37.4-83.3 83.3s37.4 83.3 83.3 83.3 83.3-37.4 83.3-83.3-37.3-83.3-83.3-83.3z m0 123.9c-22.4 0-40.6-18.2-40.6-40.6 0-22.4 18.2-40.6 40.6-40.6 22.4 0 40.6 18.2 40.6 40.6 0 22.4-18.2 40.6-40.6 40.6z" p-id="14159"></path></svg>