<?xml version="1.0" standalone="no"?><!DOCTYPE svg PUBLIC "-//W3C//DTD SVG 1.1//EN" "http://www.w3.org/Graphics/SVG/1.1/DTD/svg11.dtd"><svg t="1663124774942" class="icon" viewBox="0 0 1820 1024" version="1.1" xmlns="http://www.w3.org/2000/svg" p-id="15297" data-spm-anchor-id="a313x.7781069.0.i2" width="81.7578125" height="46" xmlns:xlink="http://www.w3.org/1999/xlink"><path d="M910.222222 75.093333c-211.152593 0-382.293333 171.140741-382.293333 382.293334 3.128889 217.315556 373.854815 486.779259 374.139259 488.865185l8.154074 6.068148 8.154074-6.068148c0.284444-2.085926 371.01037-271.54963 374.13926-488.865185 0-211.152593-171.140741-382.293333-382.293334-382.293334z m0 129.706667c128.18963 0.18963 231.822222 103.917037 232.106667 232.106667-0.284444 128.18963-103.917037 231.917037-232.106667 232.106666-128.18963-0.18963-231.917037-103.917037-232.106666-232.106666 0.18963-128.18963 103.917037-231.917037 232.106666-232.106667z" p-id="15298" data-spm-anchor-id="a313x.7781069.0.i0" class="" fill="#d81e06"></path><path d="M924.728889 554.856296c34.702222 0 70.731852-0.474074 108.847407-1.896296l13.17926-0.474074v-13.179259c0-58.88-37.167407-108.942222-89.410371-128.18963 12.98963-12.420741 21.143704-29.961481 21.143704-49.303704 0-37.736296-30.53037-68.266667-68.266667-68.266666s-68.266667 30.53037-68.266666 68.266666c0 19.437037 8.154074 36.882963 21.143703 49.303704-52.148148 19.247407-89.41037 69.30963-89.41037 128.18963v13.368889l13.368889 0.284444c44.562963 0.948148 89.78963 1.896296 137.671111 1.896296z" p-id="15299" data-spm-anchor-id="a313x.7781069.0.i1" class="selected"></path></svg>