<?xml version="1.0" standalone="no"?>
<svg xmlns="http://www.w3.org/2000/svg" width="24" height="24"><rect width="24" height="24" opacity="0"></rect><g><path d="M12 10.01Q11.16 10.01 10.57 10.6Q9.98 11.18 9.98 12Q9.98 12.82 10.58 13.42Q11.18 14.02 12 14.02Q12.82 14.02 13.4 13.43Q13.99 12.84 13.99 12Q13.99 11.16 13.42 10.58Q12.84 10.01 12 10.01Z" fill="rgba(0,0,0,0.9019607843137255)"></path><path d="M5.23 12Q5.23 13.73 6.06 15.24Q6.89 16.75 8.35 17.69Q8.62 17.86 8.92 17.78Q9.22 17.71 9.38 17.45Q9.55 17.18 9.48 16.88Q9.41 16.58 9.17 16.42Q8.04 15.67 7.39 14.51Q6.74 13.34 6.74 12Q6.74 10.66 7.38 9.48Q8.02 8.3 9.17 7.56Q9.43 7.39 9.49 7.09Q9.55 6.79 9.38 6.53Q9.22 6.26 8.92 6.19Q8.62 6.12 8.35 6.31Q6.89 7.25 6.06 8.75Q5.23 10.25 5.23 12ZM14.59 17.45Q14.76 17.71 15.04 17.78Q15.31 17.86 15.65 17.69Q16.61 17.06 17.3 16.18Q18 15.29 18.37 14.22Q18.74 13.15 18.74 12Q18.74 10.25 17.93 8.75Q17.11 7.25 15.65 6.31Q15.38 6.12 15.07 6.19Q14.76 6.26 14.59 6.53Q14.42 6.79 14.48 7.08Q14.54 7.37 14.81 7.54L14.83 7.56Q15.96 8.3 16.61 9.48Q17.26 10.66 17.26 12Q17.26 12.89 16.97 13.72Q16.68 14.54 16.13 15.24Q15.58 15.94 14.83 16.42Q14.57 16.58 14.5 16.88Q14.42 17.18 14.59 17.45Z" fill="rgba(0,0,0,0.9019607843137255)"></path><path d="M0.77 12Q0.77 14.5 1.82 16.74Q2.88 18.98 4.78 20.59Q5.02 20.78 5.32 20.76Q5.62 20.74 5.83 20.52Q6.02 20.28 6 19.97Q5.98 19.66 5.74 19.44Q4.08 18.05 3.17 16.1Q2.26 14.16 2.26 12Q2.26 9.84 3.17 7.88Q4.08 5.93 5.76 4.54Q5.98 4.32 6.01 4.01Q6.05 3.7 5.83 3.48Q5.64 3.24 5.33 3.22Q5.02 3.19 4.78 3.38Q2.88 4.99 1.82 7.25Q0.77 9.5 0.77 12ZM18.17 20.5Q18.36 20.74 18.67 20.76Q18.98 20.78 19.22 20.59Q20.5 19.54 21.4 18.17Q22.3 16.8 22.76 15.23Q23.23 13.66 23.23 12Q23.23 10.34 22.76 8.77Q22.3 7.2 21.4 5.82Q20.5 4.44 19.22 3.38Q18.98 3.19 18.67 3.22Q18.36 3.24 18.17 3.48Q17.95 3.72 17.98 4.03Q18 4.34 18.24 4.54Q19.34 5.45 20.12 6.65Q20.9 7.85 21.31 9.2Q21.72 10.56 21.72 12Q21.72 13.44 21.31 14.8Q20.9 16.15 20.14 17.34Q19.37 18.53 18.26 19.44Q18.02 19.63 18 19.94Q17.98 20.26 18.17 20.5Z" fill="rgba(0,0,0,0.9019607843137255)"></path></g></svg>